<?xml version="1.0" standalone="no"?><!DOCTYPE svg PUBLIC "-//W3C//DTD SVG 1.1//EN" "http://www.w3.org/Graphics/SVG/1.1/DTD/svg11.dtd"><svg t="1570180035459" class="icon" viewBox="0 0 1027 1024" version="1.1" xmlns="http://www.w3.org/2000/svg" p-id="2118" xmlns:xlink="http://www.w3.org/1999/xlink" width="200.5859375" height="200"><defs><style type="text/css"></style></defs><path d="M513.43656 0C230.398462 0 0.00001 226.878476 0.00001 505.596603a501.916628 501.916628 0 0 0 30.879792 172.478841 26.71982 26.71982 0 0 0 1.279992 3.199979 492.63669 492.63669 0 0 0 31.999785 67.999543 31.999785 31.999785 0 0 0 27.839813 15.999892 31.999785 31.999785 0 0 0 15.999892-3.999973 31.999785 31.999785 0 0 0 12.319917-43.679706 382.077433 382.077433 0 0 1-19.519869-39.839733l54.719633-47.999677 73.439506 11.359924A51.039657 51.039657 0 0 0 273.438173 623.995808l38.399742-43.19971 19.839866 27.199817 31.999785 59.679599a31.999785 31.999785 0 0 0 18.399877 15.999893l104.639297 33.119777a29.7598 29.7598 0 0 0 9.759934 1.599989 31.999785 31.999785 0 0 0 9.599935-62.559579l-91.839382-30.399796-27.359817-50.399662-2.399984-3.999973-29.919799-40.15973a51.039657 51.039657 0 0 0-39.039737-20.639861A49.919665 49.919665 0 0 0 274.878163 527.996453l-43.999705 49.599666-81.439452-12.479916a31.999785 31.999785 0 0 0-26.079825 7.51995l-45.919692 39.999731a437.917058 437.917058 0 0 1-13.439909-107.039281 444.157016 444.157016 0 0 1 355.037614-431.997097l6.559956 102.399312a51.839652 51.839652 0 0 0 7.839948 23.67984l35.839759 58.559607-39.039738 90.879389a49.919665 49.919665 0 0 0-0.799995 36.639754l45.919692 122.719176a49.599667 49.599667 0 0 0 30.079798 29.279803 46.399688 46.399688 0 0 0 15.999892 3.03998 51.199656 51.199656 0 0 0 24.959833-6.719955l95.999355-56.159623 72.159515 9.759934a49.599667 49.599667 0 0 0 51.99965-29.439802l43.039711-100.639324 107.519278-45.599693a433.597087 433.597087 0 0 1-8.479943 403.837286 31.999785 31.999785 0 0 0 56.159622 30.879793A499.516644 499.516644 0 0 0 1027.033109 505.596603C1027.033109 226.878476 796.634657 0 513.43656 0z m268.318197 299.997984A49.599667 49.599667 0 0 0 753.434948 326.877804l-40.959725 95.999355-66.079556-8.799941a50.55966 50.55966 0 0 0-31.999785 6.239958L529.436453 470.236841l-37.919746-101.439319 39.519735-92.31938a49.439668 49.439668 0 0 0-3.199979-45.119696l-38.399742-61.919584-6.879954-104.159301C492.796699 63.99957 503.03663 63.99957 513.43656 63.99957a451.516966 451.516966 0 0 1 370.877508 191.99871zM321.43785 829.114429a31.999785 31.999785 0 0 0 0-63.99957h-109.279266A50.719659 50.719659 0 0 0 161.438925 815.994518v59.999596a50.719659 50.719659 0 0 0 50.719659 50.559661H289.438065V959.99355h-95.999355a31.999785 31.999785 0 0 0 0 63.99957h105.759289A53.439641 53.439641 0 0 0 353.437635 972.793464v-59.999597a53.439641 53.439641 0 0 0-54.239636-50.55966H225.438495v-33.119778zM833.43441 829.114429a31.999785 31.999785 0 0 0 0-63.99957h-109.279266A50.719659 50.719659 0 0 0 673.435485 815.994518v59.999596a50.719659 50.719659 0 0 0 50.719659 50.559661H801.434625V959.99355h-95.999355a31.999785 31.999785 0 0 0 0 63.99957h105.759289A53.439641 53.439641 0 0 0 865.434195 972.793464v-59.999597a53.439641 53.439641 0 0 0-54.239636-50.55966H737.435055v-33.119778zM558.236259 767.99484h-89.759397A51.039657 51.039657 0 0 0 417.437205 819.194496v153.598968a51.039657 51.039657 0 0 0 51.039657 51.199656h89.759397a51.199656 51.199656 0 0 0 51.199656-51.199656v-153.598968a51.199656 51.199656 0 0 0-51.199656-51.199656zM545.436345 959.99355h-63.99957v-127.99914h63.99957z" p-id="2119" fill="#ffffff"></path></svg>