<?xml version="1.0" standalone="no"?><!DOCTYPE svg PUBLIC "-//W3C//DTD SVG 1.1//EN" "http://www.w3.org/Graphics/SVG/1.1/DTD/svg11.dtd"><svg t="1568182435252" class="icon" viewBox="0 0 1024 1024" version="1.1" xmlns="http://www.w3.org/2000/svg" p-id="921" xmlns:xlink="http://www.w3.org/1999/xlink" width="200" height="200"><defs><style type="text/css"></style></defs><path d="M512 1024C170.6624 1024 0 853.3376 0 512S170.6624 0 512 0s512 170.6624 512 512-170.6624 512-512 512z m-85.3376-725.3376H345.6a25.6 25.6 0 0 0-25.6 25.6v375.4752a25.6 25.6 0 0 0 25.6 25.6h332.8a25.6 25.6 0 0 0 25.6-25.6V324.2624a25.6 25.6 0 0 0-25.6-25.6h-81.0624V358.4a25.6 25.6 0 0 1-25.6 25.6h-119.4752a25.6 25.6 0 0 1-25.6-25.6v-59.7376z m64 0a21.3376 21.3376 0 0 0 0 42.6752h42.6752a21.3376 21.3376 0 0 0 0-42.6752h-42.6752zM448 469.3376h128A21.3376 21.3376 0 1 1 576 512H448a21.3376 21.3376 0 0 1 0-42.6624z m0 85.3248h64a21.3376 21.3376 0 0 1 0 42.6752h-64a21.3376 21.3376 0 0 1 0-42.6752z" fill="#2CB991" p-id="922"></path></svg>